<svg xmlns="http://www.w3.org/2000/svg" xmlns:xlink="http://www.w3.org/1999/xlink" viewBox="0,0,256,256" width="64px" height="64px" fill-rule="nonzero"><g fill="#76b900" fill-rule="nonzero" stroke="none" stroke-width="1" stroke-linecap="butt" stroke-linejoin="miter" stroke-miterlimit="10" stroke-dasharray="" stroke-dashoffset="0" font-family="none" font-weight="none" font-size="none" text-anchor="none" style="mix-blend-mode: normal"><g transform="scale(4,4)"><path d="M55,0c-4.961,0 -9,4.039 -9,9c0,2.07 0.69891,3.98 1.87891,5.5l-4.26953,3.91016c-2.718,-2.719 -6.46838,-4.41016 -10.60937,-4.41016c-4.711,0 -8.92187,2.17956 -11.67187,5.60156l-3.97656,-3.11328c-0.43,-0.348 -1.06334,-0.27013 -1.40234,0.17188c-0.34,0.43 -0.25812,1.05944 0.17188,1.39844l4.05078,3.17188c-1.383,2.269 -2.17187,4.91753 -2.17187,7.76953c0,2.121 0.44128,4.14094 1.23828,5.96094l-8.09766,3.55859c-0.73,-0.93 -1.87063,-1.51953 -3.14062,-1.51953c-2.211,0 -4,1.789 -4,4c0,2.211 1.789,4 4,4c2.211,0 4,-1.789 4,-4c0,-0.219 -0.01959,-0.42963 -0.05859,-0.64062l8.21875,-3.60937c2.469,4.07 6.81984,6.87894 11.83984,7.21094v6.03906c0,0.551 0.449,1 1,1c0.551,0 1,-0.449 1,-1v-6.03906c3.672,-0.242 6.96922,-1.80094 9.44922,-4.21094l4.03125,3.62891c-0.929,1.301 -1.48047,2.90209 -1.48047,4.62109c0,4.41 3.59,8 8,8c4.41,0 8,-3.59 8,-8c0,-4.41 -3.59,-8 -8,-8c-1.969,0 -3.78088,0.71916 -5.17187,1.91016l-4.04687,-3.64844c2.02,-2.551 3.21875,-5.76172 3.21875,-9.26172c0,-3.41 -1.14131,-6.55913 -3.07031,-9.07812l4.35156,-3.98047c1.558,1.288 3.54675,2.05859 5.71875,2.05859c4.961,0 9,-4.039 9,-9c0,-4.961 -4.039,-9 -9,-9zM55,2c3.859,0 7,3.141 7,7c0,3.859 -3.141,7 -7,7c-1.59,0 -3.05147,-0.53069 -4.23047,-1.42969c-0.539,-0.398 -1.00816,-0.89069 -1.41016,-1.42969c-0.86,-1.16 -1.35937,-2.58962 -1.35937,-4.14062c0,-3.859 3.141,-7 7,-7zM10,6c-3.309,0 -6,2.691 -6,6c0,3.309 2.691,6 6,6c3.309,0 6,-2.691 6,-6c0,-3.309 -2.691,-6 -6,-6zM10,8c2.207,0 4,1.793 4,4c0,2.207 -1.793,4 -4,4c-2.207,0 -4,-1.793 -4,-4c0,-2.207 1.793,-4 4,-4zM31.70117,8.18359c-0.551,0.034 -0.96955,0.50855 -0.93555,1.06055l0.12305,1.99609c0.03,0.49 0.40986,0.87664 0.88086,0.93164c0.058,0.007 0.11673,0.00791 0.17773,0.00391c0.551,-0.034 0.9715,-0.50855 0.9375,-1.06055l-0.12305,-1.99609c-0.034,-0.551 -0.50455,-0.97355 -1.06055,-0.93555zM37.13672,8.5332c-0.539,-0.108 -1.06778,0.2422 -1.17578,0.7832l-0.39648,1.96094c-0.11,0.542 0.2412,1.06873 0.7832,1.17773c0.027,0.006 0.05403,0.01067 0.08203,0.01367c0.512,0.06 0.9927,-0.28092 1.0957,-0.79492l0.39453,-1.96094c0.109,-0.541 -0.2422,-1.07069 -0.7832,-1.17969zM26.74609,9.16211c-0.12945,-0.00988 -0.26183,0.00483 -0.39258,0.04883c-0.524,0.176 -0.80686,0.74263 -0.63086,1.26562l0.63672,1.89649c0.127,0.379 0.45903,0.63178 0.83203,0.67578c0.142,0.017 0.29055,0.00308 0.43555,-0.04492c0.524,-0.176 0.80391,-0.74458 0.62891,-1.26758l-0.63672,-1.89453c-0.132,-0.393 -0.48469,-0.65006 -0.87305,-0.67969zM41.9043,10.21094c-0.38911,-0.02438 -0.77253,0.18223 -0.95703,0.55273l-0.89062,1.79102c-0.246,0.494 -0.04478,1.09384 0.44922,1.33984c0.106,0.053 0.21908,0.08661 0.33008,0.09961c0.407,0.048 0.81872,-0.16083 1.01172,-0.54883l0.89063,-1.78906c0.246,-0.495 0.04478,-1.0958 -0.44922,-1.3418c-0.12375,-0.062 -0.25506,-0.09539 -0.38477,-0.10351zM21.82617,11.46289c-0.12772,0.02412 -0.25389,0.07389 -0.36914,0.15039c-0.46,0.306 -0.58334,0.92477 -0.27734,1.38477l1.10742,1.66601c0.169,0.255 0.4358,0.40545 0.7168,0.43945c0.227,0.027 0.46392,-0.02316 0.66992,-0.16016c0.46,-0.306 0.58334,-0.92672 0.27734,-1.38672l-1.10742,-1.66406c-0.22875,-0.345 -0.63442,-0.50206 -1.01758,-0.42969zM33,16c3.559,0 6.78863,1.44072 9.14063,3.76172c0.48,0.469 0.91759,0.97653 1.30859,1.51953c1.601,2.159 2.55078,4.83975 2.55078,7.71875c0,2.969 -1.01222,5.71887 -2.69922,7.92188c-0.095,0.124 -0.20078,0.24128 -0.30078,0.36328v-1.28516c0,-3.356 -2.1262,-6.3097 -5.1582,-7.4707c0.725,-0.992 1.1582,-2.2093 1.1582,-3.5293c0,-3.309 -2.691,-6 -6,-6c-3.309,0 -6,2.691 -6,6c0,1.32 0.4332,2.5373 1.1582,3.5293c-3.032,1.161 -5.1582,4.1147 -5.1582,7.4707v1.2793c-0.355,-0.43 -0.69028,-0.87561 -0.98828,-1.34961c-0.363,-0.559 -0.68412,-1.16148 -0.95312,-1.77148c-0.68,-1.589 -1.05859,-3.3302 -1.05859,-5.1582c0,-2.371 0.64072,-4.60153 1.76172,-6.51953c0.328,-0.582 0.70672,-1.12934 1.13672,-1.65234c2.382,-2.937 6.02356,-4.82812 10.10156,-4.82812zM33,21c2.206,0 4,1.794 4,4c0,2.206 -1.794,4 -4,4c-2.206,0 -4,-1.794 -4,-4c0,-2.206 1.794,-4 4,-4zM29.88867,30.12109c0.909,0.554 1.97133,0.87891 3.11133,0.87891c1.14,0 2.20233,-0.32491 3.11133,-0.87891c2.801,0.528 4.88867,2.99991 4.88867,5.87891v3.23438c-1.96,1.539 -4.375,2.52956 -7,2.72656c-0.328,0.028 -0.66,0.03906 -1,0.03906c-0.34,0 -0.672,-0.01206 -1,-0.03906c-2.631,-0.2 -5.042,-1.1857 -7,-2.7207v-3.24023c0,-2.879 2.08767,-5.35091 4.88867,-5.87891zM8,39c0.441,0 0.85169,0.14063 1.17969,0.39063c0.5,0.359 0.82031,0.94938 0.82031,1.60938c0,0.078 0.00028,0.14775 -0.01172,0.21875c-0.109,1 -0.96828,1.78125 -1.98828,1.78125c-1.102,0 -2,-0.898 -2,-2c0,-1.102 0.898,-2 2,-2zM54,42c3.309,0 6,2.691 6,6c0,3.309 -2.691,6 -6,6c-3.309,0 -6,-2.691 -6,-6c0,-1.211 0.35947,-2.34025 0.98047,-3.28125c0.359,-0.559 0.81966,-1.05903 1.34766,-1.45703c1.012,-0.793 2.29288,-1.26172 3.67188,-1.26172zM33,53c-2.758,0 -5,2.242 -5,5c0,2.758 2.242,5 5,5c2.758,0 5,-2.242 5,-5c0,-2.758 -2.242,-5 -5,-5zM33,55c1.652,0 3,1.348 3,3c0,1.652 -1.348,3 -3,3c-1.652,0 -3,-1.348 -3,-3c0,-1.652 1.348,-3 3,-3z"></path></g></g></svg>