<?xml version="1.0" encoding="UTF-8"?>
<svg width="24" height="24" viewBox="0 0 24 24" fill="none" xmlns="http://www.w3.org/2000/svg">
  <path d="M17 2H7C4.79086 2 3 3.79086 3 6V18C3 20.2091 4.79086 22 7 22H17C19.2091 22 21 20.2091 21 18V6C21 3.79086 19.2091 2 17 2Z" stroke="#76b900" stroke-width="2" stroke-linecap="round" stroke-linejoin="round"/>
  <path d="M12 14C14.2091 14 16 12.2091 16 10C16 7.79086 14.2091 6 12 6C9.79086 6 8 7.79086 8 10C8 12.2091 9.79086 14 12 14Z" stroke="#76b900" stroke-width="2" stroke-linecap="round" stroke-linejoin="round"/>
  <path d="M8 18C8 16.4087 8.63214 14.8826 9.75736 13.7574C10.8826 12.6321 12.4087 12 14 12C15.5913 12 17.1174 12.6321 18.2426 13.7574C19.3679 14.8826 20 16.4087 20 18" stroke="#76b900" stroke-width="2" stroke-linecap="round" stroke-linejoin="round"/>
</svg>
